<svg width="67" height="51" viewBox="0 0 67 51" fill="none" xmlns="http://www.w3.org/2000/svg">
<path fill-rule="evenodd" clip-rule="evenodd" d="M64.8149 0H2.0543L33.0271 29.9836L64.8149 0ZM0 2.29498V49.6598C4.27726 45.5836 9.01701 41.0892 13.2823 37.087C16.7441 33.8388 19.8993 30.9092 22.2427 28.7893C23.3131 27.8209 24.2233 27.0133 24.9197 26.4189L0 2.29498ZM3.05264 51H64.4942L39.3237 28.2714L34.148 33.1533L32.9974 34.2386L31.862 33.1395L27.1311 28.5596C26.465 29.1265 25.5615 29.9271 24.4669 30.9173C22.1449 33.0179 19.0061 35.9321 15.5479 39.1769C11.5436 42.9342 7.11894 47.1274 3.05264 51ZM67 49.1262V2.16586L41.5642 26.158L67 49.1262Z" fill="white"/>
</svg>
