<svg width="48" height="40" viewBox="0 0 48 40" fill="none" xmlns="http://www.w3.org/2000/svg">
<path d="M46.943 5.14567C45.4312 5.7963 43.8418 6.24937 42.2141 6.49367C42.9751 6.36321 44.0948 4.99348 44.5405 4.43906C45.2176 3.60277 45.7337 2.64808 46.0624 1.62348C46.0624 1.54739 46.1385 1.43868 46.0624 1.38432C46.0241 1.36339 45.9811 1.35242 45.9374 1.35242C45.8937 1.35242 45.8508 1.36339 45.8124 1.38432C44.045 2.34142 42.164 3.07191 40.2139 3.55851C40.1459 3.57927 40.0736 3.58114 40.0046 3.5639C39.9357 3.54666 39.8727 3.51098 39.8225 3.46067C39.6707 3.27992 39.5073 3.10925 39.3333 2.94974C38.5379 2.23709 37.6355 1.65382 36.6591 1.22126C35.341 0.680511 33.9173 0.446326 32.4955 0.536387C31.1159 0.623515 29.769 0.993551 28.5385 1.62348C27.3268 2.28761 26.2618 3.18986 25.4076 4.27599C24.5091 5.39391 23.8605 6.69127 23.5052 8.08082C23.2123 9.40257 23.1791 10.7687 23.4074 12.1031C23.4074 12.3314 23.4074 12.364 23.2117 12.3314C15.4607 11.1899 9.10122 8.43957 3.90491 2.53664C3.67662 2.27574 3.55704 2.27574 3.37224 2.53664C1.11108 5.97186 2.20905 11.4073 5.03549 14.0925C5.41597 14.4512 5.80733 14.7991 6.22042 15.1252C4.92452 15.0332 3.66026 14.682 2.50256 14.0925C2.28514 13.9511 2.16556 14.0272 2.15469 14.2881C2.12387 14.6498 2.12387 15.0135 2.15469 15.3752C2.38152 17.1087 3.06467 18.7508 4.13429 20.1337C5.20391 21.5166 6.62161 22.5905 8.24242 23.2458C8.63753 23.415 9.04924 23.5426 9.47084 23.6263C8.27115 23.8625 7.04071 23.8992 5.82907 23.735C5.56817 23.6806 5.47033 23.822 5.56817 24.072C7.1662 28.4204 10.634 29.7466 13.1778 30.4858C13.5257 30.5402 13.8736 30.5402 14.2649 30.6272C14.2649 30.6272 14.2649 30.6272 14.1997 30.6924C13.4496 32.0621 10.4166 32.9862 9.02513 33.4645C6.48532 34.3768 3.77741 34.7255 1.08934 34.4864C0.66537 34.4211 0.567532 34.432 0.458822 34.4864C0.350113 34.5407 0.458822 34.6603 0.578403 34.769C1.12195 35.1277 1.6655 35.443 2.23079 35.7474C3.91366 36.6653 5.69279 37.3944 7.53581 37.9216C17.0805 40.5523 27.821 38.6173 34.985 31.4968C40.6161 25.9092 42.5946 18.2017 42.5946 10.4833C42.5946 10.1898 42.9534 10.0159 43.1599 9.86366C44.5846 8.75362 45.8405 7.44269 46.8886 5.97186C47.0701 5.75261 47.1632 5.47346 47.1495 5.18915C47.1495 5.02609 47.1495 5.0587 46.943 5.14567Z" fill="white"/>
</svg>
